<svg preserveAspectRatio="none" width="100%" height="100%" overflow="visible" style="display: block;" viewBox="0 0 14 14" fill="none" xmlns="http://www.w3.org/2000/svg">
<g id="Frame">
<path id="Vector" d="M12.5475 10.3814L10.1519 7.98579C10.0074 7.84162 9.81158 7.76065 9.60744 7.76065C9.40331 7.76065 9.20751 7.84162 9.06298 7.98579L8.51852 8.53025C8.21054 8.83824 7.21324 8.53169 6.34077 7.65913C5.46831 6.78657 5.16119 5.78975 5.46966 5.48138L6.01412 4.93692C6.15829 4.7924 6.23925 4.5966 6.23925 4.39246C6.23925 4.18832 6.15829 3.99252 6.01412 3.848L3.61847 1.45245C3.47396 1.30828 3.27818 1.22732 3.07406 1.22732C2.86994 1.22732 2.67415 1.30828 2.52964 1.45245L1.98518 1.99691C1.58288 2.39922 1.33784 2.92837 1.2567 3.56975C1.18144 4.16465 1.25083 4.83182 1.46286 5.55241C1.88817 6.99995 2.84735 8.52178 4.16293 9.83698C5.47851 11.1522 7.00006 12.1117 8.44711 12.537C8.98021 12.6938 9.48387 12.7727 9.95066 12.7727C10.1109 12.7729 10.2711 12.7631 10.4302 12.7432C11.0715 12.6621 11.6007 12.417 12.003 12.0147L12.5475 11.4703C12.6916 11.3258 12.7726 11.13 12.7726 10.9258C12.7726 10.7217 12.6916 10.5259 12.5475 10.3814Z" fill="#333333"/>
</g>
</svg>
