<svg width="20" height="20" viewBox="0 0 20 20" fill="none" xmlns="http://www.w3.org/2000/svg">
<path d="M12.6537 17.5475H4.37949C3.32559 17.5475 2.46777 16.6898 2.46777 15.6357V4.10176C2.46777 3.04785 3.32539 2.19043 4.37949 2.19043H12.6535C13.048 2.19043 13.3678 2.51035 13.3678 2.90469C13.3678 3.29902 13.0479 3.61895 12.6535 3.61895H4.37949C4.11328 3.61895 3.89648 3.83555 3.89648 4.10156V15.6357C3.89648 15.9021 4.11328 16.1187 4.37949 16.1187H12.6535C13.048 16.1187 13.3678 16.4387 13.3678 16.833C13.368 17.2277 13.048 17.5475 12.6537 17.5475Z" fill="#333333"/>
<path d="M16.2752 10.5833H8.475C8.08047 10.5833 7.76074 10.2634 7.76074 9.86904C7.76074 9.47471 8.08066 9.15479 8.475 9.15479H16.2752C16.6697 9.15479 16.9895 9.47471 16.9895 9.86904C16.9895 10.2634 16.6695 10.5833 16.2752 10.5833Z" fill="#333333"/>
<path d="M13.5494 13.8476C13.3666 13.8476 13.1837 13.7779 13.0443 13.6384C12.7652 13.3593 12.7652 12.9074 13.0443 12.6285L15.8033 9.86909L13.0443 7.10991C12.7652 6.83081 12.7652 6.37886 13.0443 6.09995C13.323 5.82085 13.7757 5.82085 14.0542 6.09995L17.3183 9.36401C17.5974 9.64312 17.5974 10.0951 17.3183 10.374L14.0544 13.6382C13.915 13.7779 13.7322 13.8476 13.5494 13.8476Z" fill="#333333"/>
</svg>
