<svg preserveAspectRatio="none" width="100%" height="100%" overflow="visible" style="display: block;" viewBox="0 0 14 14" fill="none" xmlns="http://www.w3.org/2000/svg">
<g id="Frame">
<path id="Vector" d="M6.99179 8.47859C7.7285 8.47859 8.45262 8.25996 9.0634 7.85393C9.67418 7.44791 10.1527 6.86697 10.4361 6.19234C10.7194 5.51771 10.795 4.77436 10.6502 4.056C10.5053 3.33765 10.1527 2.68175 9.6301 2.16329C9.10748 1.64482 8.44632 1.29501 7.72221 1.15134C6.99809 1.00767 6.24878 1.08262 5.56874 1.36372C4.8887 1.64482 4.30311 2.11956 3.89382 2.72548C3.48454 3.3314 3.26416 4.04976 3.26416 4.78061C3.26416 5.26784 3.35861 5.74883 3.54751 6.19859C3.73641 6.64834 4.00717 7.05437 4.35348 7.39793C4.6998 7.7415 5.10908 8.01635 5.56245 8.1975C6.01581 8.38489 6.50065 8.47859 6.99179 8.47859ZM5.31688 6.13612C5.37355 6.08615 5.44281 6.05491 5.51837 6.05491C5.59393 6.05491 5.66949 6.08615 5.71986 6.13612C5.88358 6.30478 6.08507 6.4422 6.30545 6.5359C6.52584 6.6296 6.76511 6.67957 7.00439 6.67957C7.24366 6.67957 7.48293 6.6296 7.70332 6.5359C7.9237 6.4422 8.12519 6.30478 8.28891 6.13612C8.33928 6.0799 8.41484 6.04867 8.4904 6.04867C8.56596 6.04867 8.64152 6.07365 8.6919 6.12987C8.74857 6.17985 8.78005 6.25481 8.78005 6.32976C8.78005 6.40472 8.75486 6.47968 8.69819 6.52966C8.47781 6.75453 8.21335 6.93568 7.9237 7.06062C7.63405 7.18555 7.31922 7.24801 7.00439 7.24801C6.68955 7.24801 6.37472 7.18555 6.08507 7.06062C5.79542 6.93568 5.53096 6.76078 5.31058 6.52966C5.2602 6.47968 5.22872 6.40472 5.22872 6.33601C5.22872 6.26105 5.25391 6.19234 5.30428 6.13612H5.31688ZM12.7281 10.9835C12.3503 10.54 10.4613 9.12199 9.57343 9.0158C8.68559 8.90961 7.83554 9.87158 6.99179 9.87158C6.14803 9.87158 5.31058 8.91585 4.41015 9.0158C3.50973 9.11575 1.62072 10.5337 1.25552 10.9772C0.89031 11.4207 0.789563 12.9199 1.82851 12.9199H12.1551C13.2129 12.9199 13.1185 11.427 12.7281 10.9835Z" fill="#333333"/>
</g>
</svg>
