<svg preserveAspectRatio="none" width="100%" height="100%" overflow="visible" style="display: block;" viewBox="0 0 20 20" fill="none" xmlns="http://www.w3.org/2000/svg">
<g id="Frame">
<path id="Vector" d="M15.7559 7.33203H14.2168V6.39453C14.2168 4.15039 12.4082 2.33203 10.1777 2.33203C7.94726 2.33203 6.14062 4.15039 6.14062 6.39453V7.33203H4.60156C4.17773 7.33203 3.83203 7.67578 3.83203 8.10156V16.1777C3.83203 16.6035 4.17578 16.9473 4.60156 16.9473H15.7559C16.1816 16.9473 16.5254 16.6035 16.5254 16.1777V8.09961C16.5254 7.67578 16.1816 7.33203 15.7559 7.33203ZM7.29492 6.39453C7.29492 4.79102 8.58789 3.48633 10.1797 3.48633C11.7715 3.48633 13.0645 4.79102 13.0645 6.39453V7.33203H7.29492V6.39453ZM15.3711 15.793H4.98633V8.48438H15.3711V15.793Z" fill="#333333"/>
<path id="Vector_2" d="M9.60156 12.6094V14.6387C9.60156 14.8516 9.77344 15.0234 9.98633 15.0234H10.3711C10.584 15.0234 10.7559 14.8516 10.7559 14.6387V12.6094C11.4258 12.3711 11.9102 11.7363 11.9102 10.9844C11.9102 10.0293 11.1348 9.25391 10.1777 9.25391C9.22266 9.25391 8.44727 10.0293 8.44727 10.9844C8.44922 11.7383 8.93164 12.3711 9.60156 12.6094ZM10.1797 10.4082C10.498 10.4082 10.7578 10.666 10.7578 10.9844C10.7578 11.3027 10.498 11.5625 10.1797 11.5625C9.86133 11.5625 9.60352 11.3047 9.60352 10.9844C9.60156 10.666 9.86133 10.4082 10.1797 10.4082Z" fill="#333333"/>
</g>
</svg>
