<svg preserveAspectRatio="none" width="100%" height="100%" overflow="visible" style="display: block;" viewBox="0 0 20 20" fill="none" xmlns="http://www.w3.org/2000/svg">
<g id="Frame">
<path id="Vector" d="M16.5625 7.5H15.9063C15.75 4.375 13.1875 1.875 10 1.875C6.8125 1.875 4.25 4.375 4.09375 7.5H3.4375C2.40625 7.5 1.5625 8.34375 1.5625 9.375V10.625C1.5625 11.6562 2.40625 12.5 3.4375 12.5H4.0625C4.75 12.5 5.3125 11.9375 5.3125 11.25V7.8125C5.3125 5.21875 7.40625 3.125 10 3.125C12.5938 3.125 14.6875 5.21875 14.6875 7.8125V12.1875C14.6875 14.0937 13.375 15.6875 11.625 16.125C11.4063 15.8125 11.0312 15.625 10.625 15.625H9.375C8.6875 15.625 8.125 16.1875 8.125 16.875C8.125 17.5625 8.6875 18.125 9.375 18.125H10.625C11.125 18.125 11.5938 17.8125 11.7813 17.375C14.0625 16.875 15.7812 14.9062 15.9375 12.5H16.5625C17.5937 12.5 18.4375 11.6562 18.4375 10.625V9.375C18.4375 8.34375 17.5937 7.5 16.5625 7.5ZM3.4375 11.25C3.09375 11.25 2.8125 10.9688 2.8125 10.625V9.375C2.8125 9.03125 3.09375 8.75 3.4375 8.75H4.0625V11.25H3.4375ZM17.1875 10.625C17.1875 10.9688 16.9063 11.25 16.5625 11.25H15.9375V8.75H16.5625C16.9063 8.75 17.1875 9.03125 17.1875 9.375V10.625Z" fill="#333333"/>
</g>
</svg>
